<?xml version="1.0" encoding="UTF-8"?>
<svg xmlns="http://www.w3.org/2000/svg" xmlns:xlink="http://www.w3.org/1999/xlink" width="20px" height="23px" viewBox="0 0 20 22" version="1.1">
<g id="surface1">
<path style=" stroke:none;fill-rule:nonzero;fill:rgb(0%,0%,0%);fill-opacity:1;" d="M 18.570312 1.375 L 1.425781 1.375 C 0.636719 1.375 0 2 0 2.761719 L 0 19.238281 C 0 20 0.636719 20.625 1.425781 20.625 L 18.570312 20.625 C 19.355469 20.625 20 20 20 19.238281 L 20 2.761719 C 20 2 19.355469 1.375 18.570312 1.375 Z M 6.042969 17.875 L 3.082031 17.875 L 3.082031 8.6875 L 6.050781 8.6875 L 6.050781 17.875 Z M 4.5625 7.433594 C 3.613281 7.433594 2.84375 6.691406 2.84375 5.78125 C 2.84375 4.867188 3.613281 4.125 4.5625 4.125 C 5.507812 4.125 6.28125 4.867188 6.28125 5.78125 C 6.28125 6.695312 5.511719 7.433594 4.5625 7.433594 Z M 17.15625 17.875 L 14.191406 17.875 L 14.191406 13.40625 C 14.191406 12.339844 14.167969 10.96875 12.652344 10.96875 C 11.105469 10.96875 10.871094 12.128906 10.871094 13.328125 L 10.871094 17.875 L 7.90625 17.875 L 7.90625 8.6875 L 10.75 8.6875 L 10.75 9.941406 L 10.789062 9.941406 C 11.1875 9.222656 12.15625 8.460938 13.597656 8.460938 C 16.597656 8.460938 17.15625 10.363281 17.15625 12.839844 Z M 17.15625 17.875 "/>
</g>
</svg>
