<?xml version="1.0" encoding="UTF-8"?>
<svg xmlns="http://www.w3.org/2000/svg" xmlns:xlink="http://www.w3.org/1999/xlink" width="40px" height="53px" viewBox="0 0 40 53" version="1.1">
<g id="surface1">
<path style=" stroke:none;fill-rule:nonzero;fill:rgb(0%,0%,0%);fill-opacity:1;" d="M 1.457031 9.914062 C 1.457031 4.441406 5.925781 0 11.4375 0 L 28.558594 0 C 34.070312 0 38.535156 4.441406 38.535156 9.914062 C 38.535156 13.382812 36.746094 16.4375 34.03125 18.207031 C 36.746094 19.980469 38.535156 23.03125 38.535156 26.5 C 38.535156 31.976562 34.070312 36.417969 28.558594 36.417969 L 28.339844 36.417969 C 25.757812 36.417969 23.402344 35.441406 21.632812 33.839844 L 21.632812 42.976562 C 21.632812 48.527344 17.046875 53 11.492188 53 C 5.992188 53 1.457031 48.574219 1.457031 43.082031 C 1.457031 39.617188 3.25 36.566406 5.960938 34.792969 C 3.25 33.019531 1.457031 29.96875 1.457031 26.5 C 1.457031 23.03125 3.25 19.980469 5.960938 18.207031 C 3.25 16.4375 1.457031 13.382812 1.457031 9.914062 Z M 18.363281 19.832031 L 11.4375 19.832031 C 7.730469 19.832031 4.726562 22.816406 4.726562 26.5 C 4.726562 30.167969 7.707031 33.144531 11.394531 33.167969 C 11.40625 33.167969 11.421875 33.167969 11.4375 33.167969 L 18.363281 33.167969 Z M 21.632812 26.5 C 21.632812 30.183594 24.636719 33.167969 28.339844 33.167969 L 28.558594 33.167969 C 32.265625 33.167969 35.269531 30.183594 35.269531 26.5 C 35.269531 22.816406 32.265625 19.832031 28.558594 19.832031 L 28.339844 19.832031 C 24.636719 19.832031 21.632812 22.816406 21.632812 26.5 Z M 11.4375 36.417969 C 11.421875 36.417969 11.40625 36.417969 11.394531 36.417969 C 7.707031 36.4375 4.726562 39.414062 4.726562 43.082031 C 4.726562 46.753906 7.769531 49.75 11.492188 49.75 C 15.269531 49.75 18.363281 46.703125 18.363281 42.976562 L 18.363281 36.417969 Z M 11.4375 3.25 C 7.730469 3.25 4.726562 6.234375 4.726562 9.914062 C 4.726562 13.597656 7.730469 16.582031 11.4375 16.582031 L 18.363281 16.582031 L 18.363281 3.25 Z M 21.632812 16.582031 L 28.558594 16.582031 C 32.265625 16.582031 35.269531 13.597656 35.269531 9.914062 C 35.269531 6.234375 32.265625 3.25 28.558594 3.25 L 21.632812 3.25 Z M 21.632812 16.582031 "/>
</g>
</svg>
