<?xml version="1.0" encoding="UTF-8"?>
<svg xmlns="http://www.w3.org/2000/svg" xmlns:xlink="http://www.w3.org/1999/xlink" width="40px" height="80px" viewBox="0 0 40 80" version="1.1">
<g id="surface1">
<path style=" stroke:none;fill-rule:nonzero;fill:rgb(0%,0%,0%);fill-opacity:1;" d="M 32.78125 61.109375 L 30.578125 64.953125 L 29.859375 77.484375 C 29.859375 78.875 25.4375 80 20 80 C 14.5625 80 10.140625 78.875 10.140625 77.484375 L 9.234375 65.078125 L 6.90625 61.109375 C 13.34375 63.8125 26.59375 63.71875 32.78125 61.109375 Z M 2.15625 21.53125 L 4.28125 41.140625 C 5.203125 38.015625 7.53125 33.796875 10.53125 32.515625 C 11.515625 32.09375 12.515625 32.09375 13.453125 32.65625 C 14.265625 33.125 14.953125 34.109375 15.03125 34.5 C 15.21875 35.515625 14.71875 35.921875 14.328125 35.921875 C 13.859375 35.921875 13.5 35.203125 13.265625 34.78125 C 12.625 33.640625 11.65625 33.59375 10.625 34.34375 C 9.546875 35.125 8.609375 36.4375 7.953125 37.578125 C 7.15625 38.953125 6.484375 40.46875 6.078125 41.984375 C 5.84375 42.859375 5.625 44.265625 5.984375 45.09375 C 6.140625 45.4375 6.375 45.65625 6.75 45.65625 C 7.53125 45.65625 8.671875 44.625 9.21875 44.078125 C 9.921875 43.375 10.828125 42.28125 11.171875 41.578125 L 11.984375 39.15625 C 12.390625 38.09375 13.53125 38.28125 13.53125 39.15625 C 13.53125 40.75 12.953125 41.28125 11.96875 44.578125 C 11.0625 47.625 10.78125 48.609375 10.78125 48.609375 C 10.671875 49.046875 10.25 49.78125 9.796875 49.78125 C 9.609375 49.78125 9.46875 49.71875 9.390625 49.59375 C 9.234375 49.375 9.25 48.765625 9.265625 48.609375 C 9.296875 48.109375 10.25 45.140625 10.40625 44.671875 C 10.09375 45.015625 9.765625 45.359375 9.40625 45.703125 C 8.5625 46.5 7.203125 47.546875 6.046875 47.546875 C 5.515625 47.546875 5.171875 47.40625 4.84375 47.171875 L 6.03125 59.609375 C 6.34375 60.390625 12.15625 62.28125 19.8125 62.28125 C 27.484375 62.28125 33.296875 60.375 33.59375 59.609375 L 35.296875 44.828125 C 34.40625 45.640625 33.375 46.640625 32.234375 47.140625 C 31.390625 47.5 29.515625 47.734375 29.515625 46.25 C 29.515625 45.4375 30.9375 43.9375 31.765625 42.890625 C 31.984375 42.625 32.5 41.96875 32.5 41.625 C 32.5 41.171875 31.5625 41.28125 30.671875 42.015625 C 30.171875 42.4375 29.703125 43 29.3125 43.53125 C 28.640625 44.46875 28.28125 45.28125 27.984375 45.953125 C 27.015625 48.171875 27.34375 47.296875 26.5625 49.390625 C 25.78125 51.46875 25.90625 51.234375 25.75 51.578125 C 25.609375 51.875 25.40625 52.125 25.125 52.28125 C 24.828125 52.4375 24.421875 52.421875 24.171875 52.234375 C 24.03125 52.140625 23.96875 51.9375 23.96875 51.65625 C 23.96875 51.515625 23.984375 51.375 24.015625 51.234375 C 24.25 50.28125 25.234375 48.40625 26.359375 45.875 C 26.609375 45.296875 26.515625 45.46875 26.484375 45.515625 C 25.515625 46.453125 24.78125 46.90625 24.234375 47.15625 C 23.328125 47.5625 22.203125 47.5625 21.96875 46.515625 C 21.953125 46.453125 21.953125 46.390625 21.9375 46.328125 C 20.09375 47.765625 18.140625 48.15625 18.8125 45.0625 C 18.09375 46.34375 16.84375 47.390625 15.3125 47.390625 C 14.671875 47.390625 14.203125 47.171875 13.96875 46.59375 C 13.609375 45.734375 14.171875 44.265625 14.6875 42.875 C 14.953125 42.171875 15.3125 41.328125 15.796875 40.34375 C 16.046875 39.8125 16.453125 39.5 16.984375 39.640625 C 17.078125 39.671875 17.15625 39.703125 17.234375 39.75 C 17.640625 40.03125 17.484375 40.453125 17.28125 40.875 C 16.6875 42.046875 16.171875 42.90625 15.828125 44.125 C 15.6875 44.640625 15.515625 45.53125 16.0625 45.53125 C 16.4375 45.53125 16.796875 45.40625 17.140625 45.15625 C 17.859375 44.625 18.4375 43.828125 18.875 43.046875 C 19.1875 42.484375 19.5625 41.75 19.75 41.125 C 19.828125 40.859375 19.921875 40.609375 20.03125 40.375 C 20.203125 39.984375 20.4375 39.578125 20.84375 39.578125 C 21.046875 39.578125 21.21875 39.65625 21.34375 39.8125 C 21.609375 40.15625 21.546875 40.515625 21.40625 40.890625 C 21.09375 41.765625 20.671875 42.546875 20.328125 43.5 C 20.125 44.046875 19.90625 44.75 19.90625 45.328125 C 19.90625 45.859375 20.484375 45.734375 20.96875 45.515625 C 21.34375 45.34375 21.71875 45.078125 22.03125 44.8125 C 22.21875 44.046875 22.171875 44.21875 26.15625 34.15625 C 26.359375 33.640625 26.734375 33.421875 27.109375 33.421875 C 27.296875 33.421875 27.453125 33.484375 27.609375 33.59375 C 27.875 33.796875 27.875 34.234375 27.765625 34.5625 C 27.65625 34.859375 27.671875 34.765625 27.0625 36.203125 C 26.25 38.09375 25.71875 39.453125 25 41.1875 C 24.703125 41.90625 23.796875 44.140625 23.640625 44.671875 C 23.546875 45.015625 23.4375 45.578125 23.796875 45.578125 C 24.640625 45.578125 26.8125 43.53125 27.40625 42.921875 C 27.4375 42.875 27.484375 42.859375 27.546875 42.828125 C 27.640625 42.53125 27.734375 42.25 27.8125 41.96875 C 28.03125 41.375 28.234375 40.6875 28.640625 40.203125 C 28.765625 40.046875 28.90625 39.953125 29.0625 39.953125 C 29.5 39.953125 29.71875 40.140625 29.71875 40.578125 C 29.71875 40.75 29.609375 41.375 29.546875 41.546875 C 29.765625 41.3125 30 41.078125 30.25 40.84375 C 32.59375 38.671875 34.265625 39.78125 34.265625 40.875 C 34.265625 42.03125 32.875 43.640625 32.109375 44.53125 C 31.859375 44.828125 31.34375 45.375 31.328125 45.53125 C 31.328125 45.734375 31.46875 45.8125 31.671875 45.8125 C 31.984375 45.8125 32.671875 45.265625 32.921875 45.078125 C 33.703125 44.46875 34.765625 43.53125 35.515625 42.875 L 37.828125 21.5 C 33.0625 24.171875 6.953125 24.1875 2.15625 21.53125 Z M 38.046875 20.203125 C 38.046875 23.484375 1.921875 23.484375 1.921875 20.203125 C 1.921875 18.828125 10.015625 17.71875 19.984375 17.71875 C 21.390625 17.71875 22.765625 17.734375 24.09375 17.78125 L 26.0625 10.171875 L 35.640625 0.09375 C 35.859375 -0.125 36.546875 0.0625 37.1875 0.640625 C 37.828125 1.21875 38.21875 1.875 38.015625 2.09375 L 38 2.109375 L 29.046875 11.5625 L 27.484375 17.921875 C 33.71875 18.328125 38.046875 19.1875 38.046875 20.203125 Z M 27.203125 20.921875 C 27.203125 20.796875 27.0625 20.6875 26.8125 20.59375 L 26.78125 20.71875 C 26.78125 20.921875 26 21.09375 25.046875 21.09375 C 24.09375 21.09375 23.3125 20.921875 23.3125 20.71875 C 23.3125 20.703125 23.3125 20.6875 23.328125 20.671875 L 23.359375 20.5625 C 23.078125 20.65625 22.890625 20.78125 22.890625 20.921875 C 22.890625 21.25 23.859375 21.5 25.03125 21.5 C 26.234375 21.515625 27.203125 21.25 27.203125 20.921875 Z M 27.203125 20.921875 "/>
</g>
</svg>
