<?xml version="1.0" encoding="UTF-8"?>
<svg xmlns="http://www.w3.org/2000/svg" xmlns:xlink="http://www.w3.org/1999/xlink" width="50px" height="51px" viewBox="0 0 50 50" version="1.1">
<g id="surface1">
<path style=" stroke:none;fill-rule:evenodd;fill:rgb(55.294118%,30.588235%,30.588235%);fill-opacity:1;" d="M 0.0117188 45.53125 L 5.863281 45.53125 L 10.496094 32.734375 L 16.75 32.734375 L 16.75 45.53125 L 22.332031 45.53125 L 22.332031 32.734375 L 29.132812 32.734375 L 33.765625 45.53125 L 39.617188 45.53125 L 33.003906 27.875 C 33.199219 27.871094 33.394531 27.867188 33.585938 27.859375 L 43.304688 45.53125 L 49.785156 45.53125 L 39.375 26.898438 C 40.027344 26.679688 40.636719 26.425781 41.210938 26.136719 C 43.503906 24.960938 45.207031 23.34375 46.320312 21.28125 C 47.429688 19.222656 47.984375 16.863281 47.984375 14.199219 C 47.984375 11.539062 47.429688 9.160156 46.320312 7.074219 C 45.207031 4.984375 43.5 3.34375 41.1875 2.152344 C 38.878906 0.945312 35.921875 0.34375 32.320312 0.34375 L 16.75 0.34375 L 16.75 0.832031 Z M 16.75 15.457031 L 12.253906 27.878906 L 16.75 27.878906 Z M 31.15625 22.9375 L 32.230469 22.9375 C 34.691406 22.9375 36.671875 22.585938 38.171875 21.878906 C 39.6875 21.171875 40.78125 20.171875 41.457031 18.878906 C 42.148438 17.566406 42.492188 16.007812 42.492188 14.199219 C 42.492188 12.390625 42.148438 10.808594 41.457031 9.457031 C 40.769531 8.101562 39.664062 7.058594 38.148438 6.324219 C 36.636719 5.570312 34.632812 5.195312 32.140625 5.195312 L 24.511719 5.195312 Z M 22.332031 13.949219 L 25.585938 22.9375 L 22.332031 22.9375 Z M 22.332031 13.949219 "/>
</g>
</svg>
