<?xml version="1.0" encoding="UTF-8"?>
<svg xmlns="http://www.w3.org/2000/svg" xmlns:xlink="http://www.w3.org/1999/xlink" width="40px" height="40px" viewBox="0 0 40 40" version="1.1">
<g id="surface1">
<path style=" stroke:none;fill-rule:nonzero;fill:rgb(0%,0%,0%);fill-opacity:1;" d="M 2.558594 9.789062 C -0.980469 14.875 -0.542969 21.484375 2.160156 26.882812 C 2.222656 27.015625 2.292969 27.140625 2.359375 27.265625 C 2.398438 27.351562 2.441406 27.433594 2.488281 27.511719 C 2.507812 27.558594 2.539062 27.609375 2.566406 27.652344 C 2.609375 27.738281 2.65625 27.820312 2.699219 27.90625 L 2.960938 28.347656 C 3.011719 28.429688 3.058594 28.507812 3.113281 28.589844 C 3.203125 28.746094 3.3125 28.902344 3.40625 29.058594 C 3.449219 29.125 3.488281 29.1875 3.539062 29.253906 C 3.699219 29.507812 3.871094 29.753906 4.054688 29.992188 C 4.183594 30.171875 4.316406 30.34375 4.453125 30.519531 C 4.5 30.582031 4.550781 30.644531 4.597656 30.707031 L 4.964844 31.15625 C 5.011719 31.207031 5.054688 31.269531 5.101562 31.320312 C 5.265625 31.519531 5.441406 31.710938 5.613281 31.902344 C 5.613281 31.90625 5.617188 31.910156 5.621094 31.914062 C 5.832031 32.183594 6.070312 32.425781 6.328125 32.648438 C 6.460938 32.785156 6.59375 32.921875 6.738281 33.054688 L 6.90625 33.214844 C 7.089844 33.390625 7.273438 33.5625 7.46875 33.730469 C 7.472656 33.730469 7.476562 33.734375 7.476562 33.734375 L 7.574219 33.816406 C 7.742188 33.964844 7.914062 34.113281 8.089844 34.25 L 8.296875 34.425781 C 8.441406 34.539062 8.585938 34.648438 8.730469 34.761719 L 8.957031 34.933594 C 9.113281 35.050781 9.277344 35.164062 9.4375 35.277344 C 9.496094 35.320312 9.554688 35.363281 9.613281 35.398438 L 9.660156 35.4375 L 10.128906 35.746094 L 10.328125 35.878906 C 10.574219 36.035156 10.816406 36.183594 11.058594 36.332031 C 11.128906 36.367188 11.199219 36.40625 11.265625 36.445312 C 11.445312 36.546875 11.632812 36.652344 11.8125 36.75 C 11.914062 36.808594 12.015625 36.855469 12.121094 36.90625 C 12.246094 36.976562 12.375 37.046875 12.507812 37.113281 C 12.539062 37.125 12.570312 37.136719 12.601562 37.152344 C 12.65625 37.179688 12.707031 37.203125 12.761719 37.230469 C 12.960938 37.332031 13.171875 37.425781 13.386719 37.523438 C 13.425781 37.539062 13.46875 37.554688 13.511719 37.578125 C 13.753906 37.683594 13.992188 37.785156 14.242188 37.882812 C 14.296875 37.898438 14.359375 37.925781 14.417969 37.949219 C 14.640625 38.035156 14.875 38.121094 15.101562 38.203125 L 15.183594 38.230469 C 15.441406 38.316406 15.691406 38.402344 15.949219 38.480469 C 16.011719 38.5 16.070312 38.519531 16.136719 38.535156 C 16.398438 38.617188 16.65625 38.710938 16.921875 38.761719 C 34.023438 41.878906 38.992188 28.480469 38.992188 28.480469 C 34.816406 33.917969 27.410156 35.351562 20.394531 33.757812 C 20.132812 33.695312 19.875 33.613281 19.613281 33.535156 C 19.292969 33.441406 18.980469 33.34375 18.667969 33.234375 L 18.5625 33.195312 C 18.335938 33.117188 18.117188 33.035156 17.898438 32.949219 C 17.835938 32.921875 17.773438 32.902344 17.714844 32.878906 C 17.46875 32.78125 17.230469 32.679688 16.992188 32.574219 C 16.941406 32.558594 16.898438 32.535156 16.847656 32.515625 C 16.644531 32.421875 16.445312 32.328125 16.246094 32.230469 C 16.183594 32.203125 16.128906 32.175781 16.066406 32.144531 C 15.910156 32.070312 15.753906 31.988281 15.601562 31.910156 C 15.496094 31.859375 15.390625 31.804688 15.289062 31.75 C 15.101562 31.648438 14.914062 31.539062 14.726562 31.4375 C 14.667969 31.398438 14.601562 31.363281 14.539062 31.328125 C 14.292969 31.179688 14.050781 31.03125 13.808594 30.878906 C 13.742188 30.835938 13.675781 30.792969 13.613281 30.746094 C 13.433594 30.636719 13.261719 30.523438 13.089844 30.402344 C 13.035156 30.363281 12.980469 30.324219 12.921875 30.28125 C 12.753906 30.167969 12.589844 30.050781 12.429688 29.929688 C 12.359375 29.871094 12.285156 29.816406 12.210938 29.761719 C 12.0625 29.648438 11.914062 29.535156 11.769531 29.414062 L 11.570312 29.257812 C 11.382812 29.105469 11.199219 28.949219 11.015625 28.789062 C 10.996094 28.769531 10.976562 28.753906 10.953125 28.738281 L 10.375 28.214844 L 10.207031 28.058594 C 10.070312 27.917969 9.933594 27.785156 9.792969 27.648438 L 9.628906 27.480469 C 9.453125 27.304688 9.28125 27.128906 9.113281 26.941406 L 9.089844 26.917969 C 8.914062 26.722656 8.742188 26.527344 8.566406 26.328125 C 8.523438 26.273438 8.480469 26.21875 8.433594 26.164062 L 8.058594 25.703125 C 7.867188 25.457031 7.675781 25.207031 7.492188 24.957031 C 3.601562 19.644531 2.191406 12.308594 5.308594 6.296875 M 13.535156 5.507812 C 10.96875 9.191406 11.113281 14.113281 13.113281 18.007812 C 13.441406 18.660156 13.820312 19.292969 14.238281 19.894531 C 14.625 20.441406 15.046875 21.09375 15.558594 21.535156 C 15.738281 21.738281 15.933594 21.9375 16.132812 22.136719 L 16.285156 22.285156 C 16.472656 22.46875 16.667969 22.648438 16.867188 22.828125 L 16.890625 22.847656 C 17.117188 23.042969 17.347656 23.234375 17.582031 23.417969 C 17.636719 23.457031 17.6875 23.5 17.742188 23.539062 C 17.976562 23.71875 18.210938 23.894531 18.453125 24.066406 L 18.476562 24.078125 C 18.582031 24.15625 18.691406 24.222656 18.808594 24.296875 C 18.855469 24.328125 18.910156 24.367188 18.957031 24.398438 C 19.136719 24.511719 19.308594 24.617188 19.488281 24.726562 C 19.515625 24.738281 19.539062 24.75 19.566406 24.761719 C 19.714844 24.855469 19.878906 24.941406 20.035156 25.023438 C 20.089844 25.058594 20.144531 25.082031 20.203125 25.113281 C 20.3125 25.171875 20.421875 25.226562 20.53125 25.285156 L 20.582031 25.308594 C 20.808594 25.417969 21.039062 25.523438 21.261719 25.625 C 21.320312 25.648438 21.367188 25.664062 21.417969 25.6875 C 21.601562 25.769531 21.789062 25.84375 21.976562 25.917969 C 22.058594 25.945312 22.136719 25.976562 22.214844 26.003906 C 22.386719 26.066406 22.5625 26.125 22.730469 26.183594 L 22.964844 26.257812 C 23.207031 26.332031 23.453125 26.433594 23.710938 26.472656 C 36.910156 28.660156 39.96875 18.496094 39.96875 18.496094 C 37.214844 22.453125 31.890625 24.339844 26.214844 22.867188 C 25.964844 22.804688 25.714844 22.730469 25.46875 22.652344 C 25.390625 22.628906 25.320312 22.605469 25.242188 22.582031 C 25.070312 22.523438 24.890625 22.464844 24.722656 22.398438 L 24.484375 22.308594 C 24.296875 22.234375 24.105469 22.164062 23.925781 22.085938 C 23.867188 22.058594 23.816406 22.042969 23.773438 22.019531 C 23.539062 21.914062 23.304688 21.808594 23.078125 21.699219 L 22.734375 21.519531 L 22.535156 21.421875 C 22.382812 21.339844 22.242188 21.257812 22.09375 21.171875 C 22.058594 21.152344 22.023438 21.132812 21.992188 21.113281 C 21.816406 21.003906 21.632812 20.898438 21.464844 20.785156 C 21.40625 20.75 21.355469 20.714844 21.300781 20.679688 L 20.953125 20.453125 C 20.714844 20.285156 20.480469 20.105469 20.242188 19.933594 C 20.191406 19.886719 20.136719 19.84375 20.085938 19.800781 C 17.589844 17.839844 15.625 15.160156 14.691406 12.121094 C 13.707031 8.964844 13.921875 5.425781 15.621094 2.550781 M 22.765625 2.308594 C 21.253906 4.527344 21.109375 7.285156 22.148438 9.730469 C 23.257812 12.332031 25.519531 14.375 28.15625 15.339844 C 28.265625 15.382812 28.371094 15.417969 28.480469 15.457031 L 28.628906 15.5 C 28.78125 15.550781 28.9375 15.605469 29.09375 15.640625 C 36.386719 17.046875 38.363281 11.898438 38.894531 11.140625 C 37.15625 13.632812 34.246094 14.230469 30.671875 13.363281 C 30.382812 13.289062 30.09375 13.203125 29.8125 13.097656 C 29.464844 12.972656 29.121094 12.832031 28.785156 12.671875 C 28.152344 12.367188 27.546875 11.996094 26.984375 11.574219 C 23.785156 9.148438 21.804688 4.523438 23.890625 0.753906 "/>
</g>
</svg>
