<?xml version="1.0" encoding="UTF-8"?>
<svg xmlns="http://www.w3.org/2000/svg" xmlns:xlink="http://www.w3.org/1999/xlink" width="40px" height="36px" viewBox="0 0 40 36" version="1.1">
<g id="surface1">
<path style=" stroke:none;fill-rule:nonzero;fill:rgb(0%,0%,0%);fill-opacity:1;" d="M 20 20.25 L 17.777344 20.25 L 17.777344 15.75 L 20 15.75 Z M 40 11.25 L 40 24.75 L 20 24.75 L 20 27 L 11.109375 27 L 11.109375 24.75 L 0 24.75 L 0 11.25 Z M 11.109375 13.5 L 2.222656 13.5 L 2.222656 22.5 L 6.667969 22.5 L 6.667969 15.75 L 8.890625 15.75 L 8.890625 22.5 L 11.109375 22.5 Z M 22.222656 13.5 L 13.332031 13.5 L 13.332031 24.75 L 17.777344 24.75 L 17.777344 22.5 L 22.222656 22.5 Z M 37.777344 13.5 L 24.445312 13.5 L 24.445312 22.5 L 28.890625 22.5 L 28.890625 15.75 L 31.109375 15.75 L 31.109375 22.5 L 33.332031 22.5 L 33.332031 15.75 L 35.554688 15.75 L 35.554688 22.5 L 37.777344 22.5 Z M 37.777344 13.5 "/>
</g>
</svg>
