<?xml version="1.0" encoding="UTF-8"?>
<svg xmlns="http://www.w3.org/2000/svg" xmlns:xlink="http://www.w3.org/1999/xlink" width="40px" height="32px" viewBox="0 0 40 32" version="1.1">
<g id="surface1">
<path style=" stroke:none;fill-rule:nonzero;fill:rgb(0%,0%,0%);fill-opacity:1;" d="M 18.863281 23.683594 C 18.847656 23.71875 18.828125 23.75 18.863281 23.683594 Z M 34.4375 18.246094 C 33.179688 18.246094 31.9375 18.535156 30.8125 19.089844 C 30.441406 18.34375 30.0625 17.695312 30 17.207031 C 29.921875 16.640625 29.84375 16.300781 29.929688 15.625 C 30.015625 14.953125 30.410156 13.996094 30.40625 13.925781 C 30.398438 13.859375 30.316406 13.515625 29.511719 13.507812 C 28.703125 13.5 28.011719 13.664062 27.929688 13.875 C 27.789062 14.265625 27.675781 14.664062 27.597656 15.070312 C 27.453125 15.800781 25.988281 18.414062 25.15625 19.777344 C 24.878906 19.246094 24.648438 18.777344 24.597656 18.402344 C 24.523438 17.832031 24.441406 17.496094 24.53125 16.820312 C 24.617188 16.144531 25.011719 15.1875 25.003906 15.121094 C 25 15.050781 24.917969 14.707031 24.113281 14.703125 C 23.308594 14.695312 22.613281 14.859375 22.53125 15.070312 C 22.449219 15.28125 22.363281 15.78125 22.199219 16.265625 C 22.039062 16.746094 20.082031 21.09375 19.570312 22.226562 C 19.308594 22.800781 19.082031 23.265625 18.921875 23.578125 C 18.894531 23.625 18.875 23.65625 18.863281 23.683594 C 18.882812 23.652344 18.894531 23.621094 18.894531 23.632812 C 18.757812 23.902344 18.675781 24.050781 18.675781 24.050781 L 18.675781 24.058594 C 18.570312 24.257812 18.453125 24.4375 18.394531 24.4375 C 18.359375 24.4375 18.277344 23.914062 18.414062 23.195312 C 18.707031 21.683594 19.402344 19.332031 19.394531 19.25 C 19.390625 19.207031 19.527344 18.800781 18.9375 18.582031 C 18.371094 18.375 18.164062 18.71875 18.113281 18.71875 C 18.0625 18.71875 18.027344 18.84375 18.027344 18.84375 C 18.027344 18.84375 18.65625 16.195312 16.8125 16.195312 C 15.664062 16.195312 14.0625 17.457031 13.277344 18.601562 C 12.785156 18.871094 11.714844 19.453125 10.589844 20.070312 C 10.160156 20.308594 9.714844 20.550781 9.296875 20.78125 C 9.265625 20.75 9.242188 20.71875 9.210938 20.6875 C 6.972656 18.300781 2.84375 16.613281 3.015625 13.40625 C 3.078125 12.238281 3.484375 9.171875 10.960938 5.445312 C 17.085938 2.394531 21.980469 3.234375 22.824219 5.09375 C 24.035156 7.75 20.207031 12.695312 13.84375 13.40625 C 11.421875 13.675781 10.148438 12.738281 9.828125 12.390625 C 9.496094 12.019531 9.445312 12 9.320312 12.070312 C 9.117188 12.183594 9.246094 12.507812 9.320312 12.703125 C 9.507812 13.195312 10.289062 14.070312 11.621094 14.507812 C 12.789062 14.890625 15.632812 15.101562 19.070312 13.769531 C 22.929688 12.28125 25.9375 8.140625 25.054688 4.671875 C 24.15625 1.144531 18.3125 -0.0117188 12.785156 1.953125 C 9.492188 3.121094 5.929688 4.957031 3.371094 7.351562 C 0.328125 10.203125 -0.160156 12.683594 0.0390625 13.71875 C 0.75 17.402344 5.824219 19.800781 7.855469 21.578125 C 7.753906 21.632812 7.660156 21.683594 7.574219 21.734375 C 6.554688 22.238281 2.6875 24.265625 1.71875 26.402344 C 0.625 28.828125 1.902344 30.5625 2.738281 30.800781 C 5.351562 31.527344 8.023438 30.21875 9.460938 28.078125 C 10.898438 25.933594 10.722656 23.132812 10.0625 21.859375 C 10.054688 21.839844 10.042969 21.828125 10.035156 21.808594 C 10.296875 21.652344 10.566406 21.496094 10.835938 21.339844 C 11.355469 21.03125 11.859375 20.75 12.304688 20.507812 C 12.054688 21.183594 11.875 21.996094 11.78125 23.171875 C 11.667969 24.546875 12.234375 26.328125 12.972656 27.027344 C 13.296875 27.332031 13.691406 27.339844 13.933594 27.339844 C 14.796875 27.339844 15.183594 26.625 15.617188 25.777344 C 16.148438 24.738281 16.617188 23.53125 16.617188 23.53125 C 16.617188 23.53125 16.027344 26.796875 17.632812 26.796875 C 18.222656 26.796875 18.808594 26.039062 19.070312 25.652344 L 19.070312 25.65625 C 19.070312 25.65625 19.085938 25.632812 19.117188 25.582031 C 19.179688 25.488281 19.210938 25.433594 19.210938 25.433594 L 19.210938 25.414062 C 19.445312 25.007812 19.964844 24.078125 20.746094 22.539062 C 21.757812 20.550781 22.726562 18.070312 22.726562 18.070312 C 22.820312 18.617188 22.949219 19.152344 23.113281 19.683594 C 23.289062 20.277344 23.65625 20.925781 23.953125 21.558594 C 23.714844 21.882812 23.570312 22.070312 23.570312 22.070312 C 23.570312 22.074219 23.574219 22.078125 23.578125 22.082031 C 23.390625 22.332031 23.175781 22.601562 22.957031 22.863281 C 22.160156 23.8125 21.207031 24.902344 21.082031 25.214844 C 20.933594 25.582031 20.96875 25.859375 21.257812 26.070312 C 21.46875 26.234375 21.84375 26.257812 22.238281 26.226562 C 22.957031 26.175781 23.464844 26 23.707031 25.890625 C 24.15625 25.726562 24.582031 25.503906 24.96875 25.226562 C 25.75 24.652344 26.226562 23.828125 26.183594 22.738281 C 26.15625 22.140625 25.964844 21.539062 25.726562 20.976562 C 25.792969 20.875 25.871094 20.769531 25.9375 20.664062 C 27.175781 18.859375 28.132812 16.875 28.132812 16.875 C 28.226562 17.421875 28.355469 17.960938 28.519531 18.488281 C 28.667969 18.992188 28.960938 19.550781 29.230469 20.09375 C 28.070312 21.039062 27.351562 22.132812 27.101562 22.851562 C 26.636719 24.179688 27 24.78125 27.679688 24.917969 C 27.988281 24.980469 28.425781 24.835938 28.75 24.699219 C 29.234375 24.539062 29.6875 24.304688 30.097656 24.007812 C 30.878906 23.429688 31.636719 22.625 31.585938 21.53125 C 31.566406 21.039062 31.429688 20.542969 31.25 20.070312 C 32.230469 19.65625 33.503906 19.429688 35.128906 19.617188 C 38.609375 20.023438 39.289062 22.199219 39.160156 23.105469 C 39.027344 24.011719 38.296875 24.519531 38.054688 24.667969 C 37.808594 24.820312 37.734375 24.875 37.753906 24.988281 C 37.785156 25.148438 37.898438 25.144531 38.101562 25.105469 C 38.390625 25.054688 39.925781 24.367188 39.996094 22.6875 C 40.097656 20.5625 38.054688 18.226562 34.433594 18.242188 Z M 7.613281 27.289062 C 6.460938 28.546875 4.851562 29.019531 4.15625 28.621094 C 3.414062 28.1875 3.707031 26.339844 5.125 25 C 5.988281 24.1875 7.097656 23.4375 7.835938 22.976562 C 8.003906 22.875 8.25 22.726562 8.550781 22.542969 C 8.597656 22.511719 8.625 22.5 8.625 22.5 C 8.679688 22.460938 8.742188 22.429688 8.804688 22.394531 C 9.324219 24.292969 8.824219 25.96875 7.613281 27.289062 Z M 16.007812 21.578125 C 15.609375 22.558594 14.765625 25.058594 14.253906 24.925781 C 13.816406 24.8125 13.546875 22.90625 14.167969 21.03125 C 14.480469 20.089844 15.140625 18.964844 15.535156 18.527344 C 16.164062 17.820312 16.859375 17.59375 17.023438 17.875 C 17.242188 18.246094 16.257812 20.964844 16.007812 21.578125 Z M 22.945312 24.890625 C 22.777344 24.976562 22.621094 25.03125 22.546875 24.988281 C 22.492188 24.957031 22.617188 24.839844 22.617188 24.839844 C 22.617188 24.839844 23.484375 23.90625 23.828125 23.484375 C 24.027344 23.234375 24.257812 22.9375 24.507812 22.613281 C 24.507812 22.644531 24.515625 22.675781 24.515625 22.714844 C 24.507812 23.832031 23.433594 24.589844 22.945312 24.890625 Z M 28.296875 23.671875 C 28.171875 23.582031 28.1875 23.289062 28.609375 22.375 C 28.769531 22.019531 29.144531 21.421875 29.796875 20.84375 C 29.871094 21.0625 29.910156 21.289062 29.914062 21.519531 C 29.90625 22.925781 28.902344 23.453125 28.296875 23.671875 Z M 28.296875 23.671875 "/>
</g>
</svg>
