<?xml version="1.0" encoding="UTF-8"?>
<svg xmlns="http://www.w3.org/2000/svg" xmlns:xlink="http://www.w3.org/1999/xlink" width="40px" height="46px" viewBox="0 0 40 45" version="1.1">
<g id="surface1">
<path style=" stroke:none;fill-rule:nonzero;fill:rgb(0%,0%,0%);fill-opacity:1;" d="M 35.714844 2.8125 L 4.285156 2.8125 C 1.917969 2.8125 0 4.703125 0 7.03125 L 0 37.96875 C 0 40.296875 1.917969 42.1875 4.285156 42.1875 L 35.714844 42.1875 C 38.082031 42.1875 40 40.296875 40 37.96875 L 40 7.03125 C 40 4.703125 38.082031 2.8125 35.714844 2.8125 Z M 24.757812 36.535156 C 24.007812 36.667969 23.730469 36.210938 23.730469 35.832031 C 23.730469 35.359375 23.75 32.933594 23.75 30.972656 C 23.75 29.601562 23.285156 28.730469 22.742188 28.273438 C 26.042969 27.914062 29.527344 27.464844 29.527344 21.851562 C 29.527344 20.25 28.945312 19.449219 28 18.421875 C 28.152344 18.042969 28.660156 16.488281 27.847656 14.46875 C 26.605469 14.089844 23.769531 16.039062 23.769531 16.039062 C 22.589844 15.714844 21.3125 15.546875 20.054688 15.546875 C 18.792969 15.546875 17.519531 15.714844 16.339844 16.039062 C 16.339844 16.039062 13.5 14.089844 12.257812 14.46875 C 11.445312 16.480469 11.945312 18.035156 12.105469 18.421875 C 11.160156 19.449219 10.714844 20.25 10.714844 21.851562 C 10.714844 27.4375 14.042969 27.914062 17.347656 28.273438 C 16.917969 28.652344 16.535156 29.300781 16.402344 30.234375 C 15.554688 30.613281 13.382812 31.261719 12.089844 29.011719 C 11.277344 27.625 9.8125 27.507812 9.8125 27.507812 C 8.367188 27.492188 9.714844 28.40625 9.714844 28.40625 C 10.679688 28.84375 11.355469 30.53125 11.355469 30.53125 C 12.222656 33.144531 16.367188 32.265625 16.367188 32.265625 C 16.367188 33.484375 16.382812 35.472656 16.382812 35.832031 C 16.382812 36.210938 16.117188 36.667969 15.355469 36.535156 C 9.464844 34.59375 5.339844 29.074219 5.339844 22.621094 C 5.339844 14.554688 11.605469 8.429688 19.804688 8.429688 C 28 8.429688 34.644531 14.554688 34.644531 22.621094 C 34.652344 29.074219 30.652344 34.601562 24.757812 36.535156 Z M 16 31.164062 C 15.832031 31.199219 15.667969 31.132812 15.652344 31.015625 C 15.632812 30.882812 15.75 30.769531 15.917969 30.734375 C 16.089844 30.71875 16.25 30.789062 16.269531 30.902344 C 16.292969 31.015625 16.179688 31.132812 16 31.164062 Z M 15.152344 31.085938 C 15.152344 31.203125 15.019531 31.296875 14.839844 31.296875 C 14.644531 31.316406 14.507812 31.21875 14.507812 31.085938 C 14.507812 30.972656 14.644531 30.875 14.820312 30.875 C 14.992188 30.859375 15.152344 30.953125 15.152344 31.085938 Z M 13.929688 30.988281 C 13.894531 31.105469 13.714844 31.15625 13.5625 31.105469 C 13.394531 31.070312 13.277344 30.9375 13.3125 30.824219 C 13.347656 30.707031 13.527344 30.65625 13.679688 30.691406 C 13.855469 30.742188 13.972656 30.875 13.929688 30.988281 Z M 12.832031 30.515625 C 12.75 30.613281 12.582031 30.59375 12.445312 30.460938 C 12.3125 30.347656 12.277344 30.179688 12.367188 30.101562 C 12.445312 30.003906 12.617188 30.023438 12.75 30.15625 C 12.867188 30.269531 12.910156 30.445312 12.832031 30.515625 Z M 12.019531 29.714844 C 11.9375 29.769531 11.785156 29.714844 11.6875 29.582031 C 11.589844 29.453125 11.589844 29.300781 11.6875 29.242188 C 11.785156 29.164062 11.9375 29.222656 12.019531 29.355469 C 12.117188 29.488281 12.117188 29.644531 12.019531 29.714844 Z M 11.4375 28.863281 C 11.355469 28.941406 11.222656 28.898438 11.125 28.808594 C 11.027344 28.695312 11.007812 28.5625 11.089844 28.503906 C 11.167969 28.421875 11.304688 28.46875 11.402344 28.554688 C 11.5 28.671875 11.519531 28.800781 11.4375 28.863281 Z M 10.839844 28.210938 C 10.804688 28.292969 10.6875 28.308594 10.589844 28.246094 C 10.472656 28.195312 10.417969 28.097656 10.457031 28.019531 C 10.492188 27.964844 10.589844 27.941406 10.707031 27.984375 C 10.820312 28.046875 10.875 28.140625 10.839844 28.210938 Z M 10.839844 28.210938 "/>
</g>
</svg>
