<?xml version="1.0" encoding="UTF-8"?>
<svg xmlns="http://www.w3.org/2000/svg" xmlns:xlink="http://www.w3.org/1999/xlink" width="40px" height="46px" viewBox="0 0 40 45" version="1.1">
<g id="surface1">
<path style=" stroke:none;fill-rule:nonzero;fill:rgb(0%,0%,0%);fill-opacity:1;" d="M 35.714844 2.8125 L 4.285156 2.8125 C 1.917969 2.8125 0 4.703125 0 7.03125 L 0 37.96875 C 0 40.296875 1.917969 42.1875 4.285156 42.1875 L 35.714844 42.1875 C 38.082031 42.1875 40 40.296875 40 37.96875 L 40 7.03125 C 40 4.703125 38.082031 2.8125 35.714844 2.8125 Z M 21.769531 33.523438 C 21.769531 37.351562 19.480469 39.101562 16.152344 39.101562 C 13.144531 39.101562 11.402344 37.574219 10.507812 35.71875 L 13.570312 33.898438 C 14.160156 34.929688 14.695312 35.796875 15.992188 35.796875 C 17.222656 35.796875 18.007812 35.324219 18.007812 33.46875 L 18.007812 20.890625 L 21.769531 20.890625 Z M 30.660156 39.101562 C 27.167969 39.101562 24.910156 37.46875 23.8125 35.324219 L 26.875 33.582031 C 27.679688 34.875 28.730469 35.832031 30.582031 35.832031 C 32.132812 35.832031 33.132812 35.070312 33.132812 34.003906 C 33.132812 32.738281 32.117188 32.289062 30.394531 31.542969 L 29.457031 31.148438 C 26.742188 30.015625 24.945312 28.582031 24.945312 25.566406 C 24.945312 22.789062 27.097656 20.679688 30.445312 20.679688 C 32.839844 20.679688 34.554688 21.5 35.785156 23.640625 L 32.855469 25.488281 C 32.214844 24.355469 31.519531 23.90625 30.4375 23.90625 C 29.339844 23.90625 28.644531 24.59375 28.644531 25.488281 C 28.644531 26.597656 29.339844 27.042969 30.957031 27.738281 L 31.894531 28.132812 C 35.089844 29.480469 36.882812 30.859375 36.882812 33.953125 C 36.882812 37.273438 34.222656 39.101562 30.660156 39.101562 Z M 30.660156 39.101562 "/>
</g>
</svg>
